<?xml version="1.0" encoding="iso-8859-1"?>
<!-- Generator: Adobe Illustrator 19.0.0, SVG Export Plug-In . SVG Version: 6.00 Build 0)  -->
<svg version="1.1" id="Layer_1" xmlns="http://www.w3.org/2000/svg" xmlns:xlink="http://www.w3.org/1999/xlink" x="0px" y="0px"
	 viewBox="0 0 512.001 512.001" style="enable-background:new 0 0 512.001 512.001;" xml:space="preserve">
<path style="fill:#33A854;" d="M269.967,398.728c27.547,0,53.823,0,69.838,0c61.714,0,111.765-50.03,111.765-111.744
	c0-30.204-12.051-57.558-31.532-77.663c34.948-14.909,59.463-49.569,59.463-89.965c0-53.996-43.792-97.77-97.798-97.77
	c-27.97,0-53.129,11.81-70.955,30.636C305.54,26.763,283.009,7.6,256.001,7.6c-20.828,0-38.953,11.415-48.568,28.316
	c-2.416-0.212-4.85-0.376-7.324-0.376c-41.849,0-76.432,30.713-82.697,70.801C69.498,112.646,32.5,153.532,32.5,203.168
	c0,40.175,24.255,74.661,58.904,89.695c-1.925,7.037-3.032,14.409-3.032,22.06c0,46.276,37.527,83.804,83.804,83.804
	c14.678,0,33.222,0,61.75,0h36.04V398.728z"/>
<path style="opacity:0.48;fill:#24763D;enable-background:new    ;" d="M478.656,119.576c0-44.943-30.342-82.799-71.657-94.231
	c6.92,13.411,10.831,28.627,10.831,44.756c0,40.397-24.515,75.056-59.463,89.965c19.481,20.106,31.532,47.46,31.532,77.663
	c0,61.714-50.05,111.744-111.765,111.744c-16.016,0-42.292,0-69.838,0h-36.039c-28.528,0-47.072,0-61.75,0
	c-5.594,0-11.056-0.559-16.342-1.605c12.749,30.02,42.504,51.08,77.17,51.08c14.678,0,33.222,0,61.75,0h36.039
	c27.547,0,53.823,0,69.838,0c61.714,0,111.765-50.03,111.765-111.744c0-30.204-12.051-57.558-31.532-77.663
	C454.141,194.632,478.656,159.973,478.656,119.576z"/>
<g>
	<path style="fill:#C70024;" d="M207.491,150.338c0,15.867-12.862,28.729-28.729,28.729s-28.729-12.862-28.729-28.729
		s-1.76-28.729,28.729-28.729C207.491,121.608,207.491,134.471,207.491,150.338z"/>
	<path style="fill:#C70024;" d="M401.295,303.41c0,15.502-12.566,28.068-28.069,28.068s-28.068-12.566-28.068-28.068
		s-1.72-28.069,28.068-28.069C401.295,275.342,401.295,287.909,401.295,303.41z"/>
	<path style="fill:#C70024;" d="M387.139,137.297c0,15.867-12.862,28.729-28.729,28.729c-15.867,0-28.729-12.862-28.729-28.729
		s-1.76-28.729,28.729-28.729C387.139,108.568,387.139,121.431,387.139,137.297z"/>
	<path style="fill:#C70024;" d="M195.218,302.295c0,15.867-12.862,28.729-28.729,28.729s-28.729-12.862-28.729-28.729
		s-1.76-28.729,28.729-28.729C195.218,273.565,195.218,286.429,195.218,302.295z"/>
</g>
<path style="fill:#836948;" d="M342.023,187.582L342.023,187.582c-6.394-6.394-13.561-9.693-15.924-7.328l-56.65,56.65V116.632
	c0-9.043-7.399-16.442-16.442-16.442l0,0c-9.043,0-16.442,7.399-16.442,16.442V504.4h32.885V283.409l79.903-79.903
	C351.715,201.143,348.418,193.977,342.023,187.582z"/>
<path d="M487.101,119.354c0-58.101-47.281-105.37-105.398-105.37c-24.969,0-48.47,8.596-67.366,24.434
	C304.484,15.564,281.656,0,256.001,0c-21.12,0-40.857,10.624-52.604,28.02c-1.056-0.049-2.161-0.079-3.287-0.079
	c-21.922,0-43.112,7.892-59.666,22.222c-14.947,12.937-25.29,30.358-29.507,49.514C61.511,108.854,24.9,152.398,24.9,203.169
	c0,39.849,22.441,76.053,57.686,93.944c-1.205,5.95-1.814,11.918-1.814,17.813c0,50.4,41.004,91.404,91.404,91.404h56.788v98.072
	c0,4.197,3.403,7.6,7.6,7.6h32.884c4.198,0,7.6-3.403,7.6-7.6v-98.072h62.757c65.818,0,119.365-53.538,119.365-119.344
	c0-27.623-9.446-53.965-26.792-75.218C465.934,193.388,487.101,158.154,487.101,119.354z M261.849,496.8h-17.684V116.632
	c0-4.876,3.966-8.842,8.842-8.842s8.842,3.967,8.842,8.842v120.271c0,3.074,1.851,5.845,4.692,7.021
	c2.839,1.177,6.108,0.526,8.283-1.648l54.683-54.683c1.619,0.777,4.244,2.462,7.143,5.363c2.899,2.899,4.584,5.525,5.363,7.143
	l-77.937,77.936c-1.425,1.425-2.225,3.358-2.225,5.374V496.8H261.849z M443.97,286.983c0,57.425-46.728,104.144-104.165,104.144
	h-62.757v-104.57l77.678-77.678c5.874-5.875,2.997-16.344-7.328-26.671c-10.327-10.327-20.794-13.207-26.673-7.328l-43.676,43.676
	V116.632c0-13.258-10.786-24.042-24.042-24.042c-13.258,0-24.042,10.786-24.042,24.042v274.494h-56.788
	c-42.019,0-76.204-34.185-76.204-76.204c0-6.608,0.929-13.355,2.762-20.055c0.997-3.647-0.837-7.472-4.306-8.977
	c-33.004-14.32-54.33-46.791-54.33-82.723c0-45.031,33.663-83.417,78.303-89.291c3.343-0.44,5.996-3.03,6.518-6.362
	c5.83-37.301,37.451-64.374,75.188-64.374c2.4,0,4.819,0.185,6.661,0.347c2.956,0.26,5.799-1.23,7.269-3.812
	c8.592-15.097,24.671-24.474,41.965-24.474c22.839,0,42.733,16.21,47.302,38.544c0.568,2.777,2.634,5.006,5.359,5.784
	c2.727,0.778,5.657-0.024,7.606-2.082c17.256-18.225,40.495-28.262,65.435-28.262c49.736,0,90.198,40.449,90.198,90.17
	c0,36.191-21.527,68.761-54.845,82.974c-2.301,0.982-3.973,3.035-4.467,5.488c-0.495,2.453,0.249,4.994,1.991,6.79
	C433.533,234.169,443.97,259.872,443.97,286.983z"/>
<path d="M178.762,114.008c-14.324,0-23.686,2.707-29.463,8.518c-6.984,7.025-6.929,16.361-6.877,25.39
	c0.004,0.799,0.009,1.605,0.009,2.422c0,20.033,16.298,36.329,36.33,36.329s36.33-16.298,36.33-36.329
	C215.091,135.006,215.091,114.008,178.762,114.008z M178.762,171.467c-11.651,0-21.13-9.479-21.13-21.129
	c0-0.845-0.005-1.683-0.01-2.511c-0.044-7.466,0.052-12.165,2.456-14.585c1.83-1.84,6.556-4.034,18.684-4.034
	c10.178,0,16.532,1.728,18.886,5.134c2.245,3.25,2.245,9.157,2.245,15.996C199.891,161.988,190.413,171.467,178.762,171.467z"/>
<path d="M373.226,267.742c-14.043,0-23.229,2.661-28.908,8.374c-6.875,6.915-6.821,16.073-6.769,24.929
	c0.004,0.779,0.009,1.569,0.009,2.365c0,19.668,16.001,35.669,35.668,35.669c19.668,0,35.669-16.002,35.669-35.669
	C408.895,288.358,408.895,267.742,373.226,267.742z M373.226,323.879c-11.287,0-20.467-9.183-20.467-20.468
	c0-0.827-0.005-1.646-0.01-2.454c-0.043-7.249,0.049-11.809,2.349-14.124c1.763-1.774,6.341-3.89,18.129-3.89
	c9.883,0,16.042,1.662,18.306,4.94c2.162,3.129,2.162,8.875,2.162,15.527C393.695,314.697,384.513,323.879,373.226,323.879z"/>
<path d="M394.739,137.297c0-15.332,0-36.33-36.329-36.33c-14.324,0-23.686,2.707-29.463,8.518
	c-6.984,7.024-6.929,16.361-6.877,25.389c0.005,0.799,0.01,1.606,0.01,2.422c0,20.033,16.298,36.329,36.33,36.329
	C378.444,173.626,394.739,157.33,394.739,137.297z M337.28,137.297c0-0.846-0.005-1.684-0.01-2.511
	c-0.044-7.466,0.052-12.165,2.456-14.584c1.83-1.84,6.556-4.034,18.684-4.034c10.178,0,16.531,1.728,18.885,5.134
	c2.245,3.25,2.245,9.157,2.245,15.996c0,11.651-9.479,21.129-21.129,21.129C346.759,158.427,337.28,148.949,337.28,137.297z"/>
<path d="M166.488,265.965c-14.324,0-23.686,2.707-29.463,8.518c-6.984,7.025-6.929,16.361-6.877,25.389
	c0.004,0.798,0.009,1.605,0.009,2.422c0,20.033,16.298,36.33,36.33,36.33s36.329-16.298,36.329-36.33
	C202.817,286.964,202.817,265.965,166.488,265.965z M166.488,323.425c-11.651,0-21.13-9.479-21.13-21.13
	c0-0.845-0.005-1.683-0.01-2.511c-0.044-7.466,0.052-12.165,2.456-14.584c1.83-1.84,6.556-4.034,18.684-4.034
	c10.178,0,16.532,1.728,18.885,5.134c2.245,3.25,2.245,9.156,2.245,15.996C187.617,313.946,178.139,323.425,166.488,323.425z"/>
<g>
</g>
<g>
</g>
<g>
</g>
<g>
</g>
<g>
</g>
<g>
</g>
<g>
</g>
<g>
</g>
<g>
</g>
<g>
</g>
<g>
</g>
<g>
</g>
<g>
</g>
<g>
</g>
<g>
</g>
</svg>
